<svg xmlns="http://www.w3.org/2000/svg" xmlns:xlink="http://www.w3.org/1999/xlink" version="1.1" width="256" height="256" viewBox="0 0 256 256" xml:space="preserve">

<defs>
</defs>
<g style="stroke: none; stroke-width: 0; stroke-dasharray: none; stroke-linecap: butt; stroke-linejoin: miter; stroke-miterlimit: 10; fill: none; fill-rule: nonzero; opacity: 1;" transform="translate(9.77172367337775 9.771723673377721) scale(2.72 2.72)" >
	<path d="M 45.857 52.67 c 2.972 -10.279 8.89 -19.525 16.677 -26.538 C 70.312 19.084 79.937 14.333 90 12.153 c -9.906 2.834 -19.022 8.154 -26.065 15.432 c -7.061 7.247 -12.039 16.386 -14.166 26.08 c -0.009 0.041 -0.021 0.09 -0.033 0.131 c -0.311 1.071 -1.431 1.687 -2.502 1.375 S 45.546 53.74 45.857 52.67 z" style="stroke: none; stroke-width: 1; stroke-dasharray: none; stroke-linecap: butt; stroke-linejoin: miter; stroke-miterlimit: 10; fill: rgb(99,215,34); fill-rule: nonzero; opacity: 1;" transform=" matrix(1 0 0 1 0 0) " stroke-linecap="round" />
	<path d="M 39.274 81.592 c -0.043 -0.073 -0.018 -0.166 0.054 -0.208 c 1.078 -0.663 2.15 -1.309 3.183 -2.008 c 1.021 -0.719 2.023 -1.446 2.986 -2.215 c 1.921 -1.544 3.679 -3.246 5.259 -5.09 c 1.573 -1.85 2.978 -3.83 4.212 -5.921 c 0.766 -1.299 1.474 -2.636 2.157 -3.99 c -1.425 0.144 -2.854 0.234 -4.28 0.276 c -2.397 0.078 -4.789 0.011 -7.164 -0.153 l -0.052 -0.004 c -0.233 -0.016 -0.463 -0.106 -0.652 -0.271 c -3.279 -2.866 -6.483 -5.91 -9.159 -9.434 c -0.684 4.151 -0.881 8.393 -0.546 12.612 c 0.397 4.916 1.523 9.796 3.397 14.401 c 0.03 0.074 -0.003 0.161 -0.076 0.195 c -0.076 0.035 -0.166 0.003 -0.201 -0.073 c -4.239 -9.064 -5.657 -19.513 -3.951 -29.519 c 0.038 -0.217 0.156 -0.423 0.348 -0.564 c 0.394 -0.29 0.948 -0.205 1.238 0.188 l 0.022 0.03 c 2.806 3.813 6.387 7.043 10.115 10.066 c 2.185 0.046 4.366 -0.006 6.53 -0.182 c 2.287 -0.191 4.548 -0.543 6.789 -0.966 c 0.282 -0.054 0.581 -0.029 0.865 0.089 c 0.778 0.322 1.148 1.213 0.827 1.991 l -0.015 0.036 c -0.986 2.385 -2.159 4.715 -3.591 6.893 c -1.429 2.177 -3.067 4.236 -4.937 6.057 c -1.861 1.83 -3.941 3.426 -6.165 4.737 c -2.221 1.317 -4.591 2.336 -7.015 3.094 C 39.386 81.68 39.31 81.654 39.274 81.592 z" style="stroke: none; stroke-width: 1; stroke-dasharray: none; stroke-linecap: butt; stroke-linejoin: miter; stroke-miterlimit: 10; fill: rgb(99,215,34); fill-rule: nonzero; opacity: 1;" transform=" matrix(1 0 0 1 0 0) " stroke-linecap="round" />
	<path d="M 31.686 24.005 c -4.209 2.971 -8.032 6.435 -11.362 10.31 c -0.027 0.031 -0.059 0.066 -0.087 0.096 c -0.779 0.798 -2.057 0.813 -2.855 0.034 c -0.798 -0.779 -0.813 -2.057 -0.034 -2.855 c 3.799 -3.891 8.077 -7.29 12.671 -10.111 c 4.593 -2.827 9.489 -5.081 14.514 -6.859 c 10.072 -3.554 20.582 -5.282 31.066 -6.286 C 65.201 10 54.868 12.402 45.267 16.499 C 40.477 18.547 35.894 21.03 31.686 24.005 z" style="stroke: none; stroke-width: 1; stroke-dasharray: none; stroke-linecap: butt; stroke-linejoin: miter; stroke-miterlimit: 10; fill: rgb(99,215,34); fill-rule: nonzero; opacity: 1;" transform=" matrix(1 0 0 1 0 0) " stroke-linecap="round" />
	<path d="M 8.979 25.334 l 0.009 0.036 c 1.19 4.582 3.317 8.911 5.655 13.101 c 2.012 0.854 4.056 1.615 6.131 2.255 c 2.194 0.671 4.425 1.184 6.663 1.623 c 0.281 0.055 0.55 0.189 0.77 0.404 c 0.603 0.587 0.616 1.553 0.028 2.156 l -0.027 0.028 c -1.801 1.849 -3.754 3.577 -5.894 5.068 c -2.135 1.492 -4.42 2.795 -6.833 3.792 c -2.407 1.008 -4.931 1.718 -7.483 2.111 c -2.551 0.398 -5.13 0.465 -7.662 0.269 C 0.27 56.17 0.21 56.118 0.199 56.048 c -0.013 -0.083 0.045 -0.161 0.128 -0.173 c 1.247 -0.215 2.482 -0.418 3.701 -0.683 c 1.215 -0.289 2.415 -0.592 3.595 -0.949 c 2.357 -0.721 4.621 -1.648 6.772 -2.774 c 2.148 -1.133 4.187 -2.451 6.109 -3.935 c 1.193 -0.922 2.347 -1.901 3.483 -2.904 c -1.377 -0.395 -2.737 -0.842 -4.077 -1.333 c -2.254 -0.817 -4.451 -1.767 -6.596 -2.802 l -0.047 -0.023 c -0.21 -0.101 -0.39 -0.27 -0.505 -0.494 c -1.981 -3.878 -3.826 -7.894 -5.003 -12.16 c -2.176 3.6 -3.934 7.467 -5.189 11.509 C 1.116 44.04 0.351 48.99 0.381 53.961 c 0 0.08 -0.062 0.148 -0.143 0.153 c -0.083 0.005 -0.155 -0.059 -0.16 -0.142 c -0.571 -9.99 1.99 -20.219 7.289 -28.877 C 7.483 24.907 7.67 24.76 7.9 24.7 C 8.373 24.577 8.856 24.861 8.979 25.334 z" style="stroke: none; stroke-width: 1; stroke-dasharray: none; stroke-linecap: butt; stroke-linejoin: miter; stroke-miterlimit: 10; fill: rgb(99,215,34); fill-rule: nonzero; opacity: 1;" transform=" matrix(1 0 0 1 0 0) " stroke-linecap="round" />
</g>
</svg>